# xmcd
#
# Track frame offsets:
#	150
#	12952
#	26852
#	39917
#	55117
#	69750
#	81605
#	95167
#	109920
#	127715
#	139400
#	152085
#	167490
#	180135
#	191352
#	203885
#
# Disc length: 2910
#
# Revision: 2
# Processed by: cddbd v1.5.1PL0 Copyright (c) Steve Scherf et al.
# Submitted via: EasyCDDAExtractor 7.0.0.1
# Normalized: r1:DSETVAR1
#
DISCID=cd0b5c10
DTITLE=Various Artist - Country Love
DYEAR=1988
DGENRE=Country
TTITLE0=Don Williams - You're My Best Friend
TTITLE1=Barbara Mandrell - (If Loving You Is Wrong) I Don;t Want To Be Right
TTITLE2=Loretta Lynn - Faded Love
TTITLE3=Jeanne Pruett - Satin Sheets
TTITLE4=The Bellamy Brothers - If I Said You Had A Beautiful Body Would You Hold It Against Me
TTITLE5=Waylon Jennings - Crying
TTITLE6=Conway Twitty and Loretta Lynn - Feelin's
TTITLE7=Reba McIntyre - The Last One To Know
TTITLE8=Lee Greenwood - The Wind Beneath My Wings
TTITLE9=Loretta Lynn - Sweet Dreams
TTITLE10=Don Williams - Some Broken Hearts Never Mend
TTITLE11=Kenny Rogers - For The Good Times
TTITLE12=Patsy Cline - I Fall To Pieces
TTITLE13=Conway Twitty - It's Only Make Believe
TTITLE14=Donna Fargo - Funny Face
TTITLE15=Merle Haggard - If We're Not Back In Love By Monday
EXTD=
EXTT0=
EXTT1=
EXTT2=
EXTT3=
EXTT4=
EXTT5=
EXTT6=
EXTT7=
EXTT8=
EXTT9=
EXTT10=
EXTT11=
EXTT12=
EXTT13=
EXTT14=
EXTT15=
PLAYORDER=
